<?xml version="1.0" encoding="UTF-8"?>
<svg xmlns="http://www.w3.org/2000/svg" version="1.1" width="150" height="150" viewBox="0 0 150 150"><rect x="0" y="0" width="150" height="150" fill="#ffffff"/><g transform="scale(6.522)"><g transform="translate(1,1)"><path fill-rule="evenodd" d="M9 0L9 2L8 2L8 3L9 3L9 4L10 4L10 5L11 5L11 4L12 4L12 7L11 7L11 6L10 6L10 7L9 7L9 6L8 6L8 8L4 8L4 10L3 10L3 8L0 8L0 10L1 10L1 9L2 9L2 12L0 12L0 13L3 13L3 12L4 12L4 13L5 13L5 10L6 10L6 11L7 11L7 12L6 12L6 13L7 13L7 12L8 12L8 17L10 17L10 18L11 18L11 17L12 17L12 16L13 16L13 17L14 17L14 18L16 18L16 19L14 19L14 21L15 21L15 20L16 20L16 21L17 21L17 20L18 20L18 19L17 19L17 18L16 18L16 16L17 16L17 15L16 15L16 13L17 13L17 14L18 14L18 15L19 15L19 16L18 16L18 18L20 18L20 19L21 19L21 18L20 18L20 17L21 17L21 15L19 15L19 14L20 14L20 13L19 13L19 14L18 14L18 13L17 13L17 12L18 12L18 9L19 9L19 8L18 8L18 9L17 9L17 10L16 10L16 11L17 11L17 12L16 12L16 13L15 13L15 11L14 11L14 13L13 13L13 12L12 12L12 13L11 13L11 12L10 12L10 13L11 13L11 15L9 15L9 11L10 11L10 10L9 10L9 9L12 9L12 8L13 8L13 9L14 9L14 10L15 10L15 8L13 8L13 4L12 4L12 3L13 3L13 2L12 2L12 1L13 1L13 0L11 0L11 1L10 1L10 0ZM10 2L10 4L11 4L11 2ZM10 7L10 8L11 8L11 7ZM6 9L6 10L7 10L7 9ZM8 10L8 11L9 11L9 10ZM12 10L12 11L13 11L13 10ZM19 10L19 11L20 11L20 12L21 12L21 10ZM12 13L12 15L13 15L13 13ZM14 13L14 14L15 14L15 13ZM14 15L14 16L15 16L15 15ZM10 16L10 17L11 17L11 16ZM19 16L19 17L20 17L20 16ZM8 18L8 21L11 21L11 20L9 20L9 18ZM12 18L12 19L13 19L13 18ZM16 19L16 20L17 20L17 19ZM12 20L12 21L13 21L13 20ZM20 20L20 21L21 21L21 20ZM0 0L0 7L7 7L7 0ZM1 1L1 6L6 6L6 1ZM2 2L2 5L5 5L5 2ZM14 0L14 7L21 7L21 0ZM15 1L15 6L20 6L20 1ZM16 2L16 5L19 5L19 2ZM0 14L0 21L7 21L7 14ZM1 15L1 20L6 20L6 15ZM2 16L2 19L5 19L5 16Z" fill="#000000"/></g></g></svg>
