<?xml version="1.0" encoding="UTF-8"?>
<svg xmlns="http://www.w3.org/2000/svg" version="1.1" width="150" height="150" viewBox="0 0 150 150"><rect x="0" y="0" width="150" height="150" fill="#ffffff"/><g transform="scale(6.522)"><g transform="translate(1,1)"><path fill-rule="evenodd" d="M8 0L8 1L9 1L9 0ZM10 0L10 2L8 2L8 5L9 5L9 6L8 6L8 7L9 7L9 6L10 6L10 7L11 7L11 8L8 8L8 9L7 9L7 8L6 8L6 9L4 9L4 8L0 8L0 9L1 9L1 10L0 10L0 13L1 13L1 11L2 11L2 12L4 12L4 13L7 13L7 12L6 12L6 11L7 11L7 10L8 10L8 14L9 14L9 12L10 12L10 13L11 13L11 14L10 14L10 16L9 16L9 17L8 17L8 21L9 21L9 17L10 17L10 16L11 16L11 15L13 15L13 14L12 14L12 13L13 13L13 12L12 12L12 10L15 10L15 9L14 9L14 8L13 8L13 5L12 5L12 4L13 4L13 3L12 3L12 1L13 1L13 0ZM10 2L10 4L9 4L9 5L11 5L11 4L12 4L12 3L11 3L11 2ZM11 6L11 7L12 7L12 6ZM16 8L16 9L18 9L18 11L20 11L20 14L19 14L19 15L18 15L18 16L17 16L17 15L16 15L16 14L15 14L15 13L16 13L16 12L17 12L17 11L14 11L14 12L15 12L15 13L14 13L14 14L15 14L15 16L12 16L12 17L11 17L11 18L10 18L10 20L11 20L11 18L12 18L12 19L13 19L13 21L14 21L14 19L16 19L16 18L17 18L17 19L19 19L19 21L20 21L20 20L21 20L21 19L19 19L19 18L20 18L20 17L21 17L21 10L20 10L20 9L21 9L21 8L20 8L20 9L19 9L19 8ZM2 9L2 11L4 11L4 10L3 10L3 9ZM6 9L6 10L5 10L5 11L6 11L6 10L7 10L7 9ZM10 10L10 12L11 12L11 13L12 13L12 12L11 12L11 10ZM17 13L17 14L18 14L18 13ZM19 15L19 17L20 17L20 15ZM12 17L12 18L13 18L13 19L14 19L14 17ZM15 17L15 18L16 18L16 17ZM17 17L17 18L18 18L18 17ZM16 20L16 21L18 21L18 20ZM0 0L0 7L7 7L7 0ZM1 1L1 6L6 6L6 1ZM2 2L2 5L5 5L5 2ZM14 0L14 7L21 7L21 0ZM15 1L15 6L20 6L20 1ZM16 2L16 5L19 5L19 2ZM0 14L0 21L7 21L7 14ZM1 15L1 20L6 20L6 15ZM2 16L2 19L5 19L5 16Z" fill="#000000"/></g></g></svg>
